<svg version="1.1" viewBox="0.0 0.0 960.0 540.0" fill="none" stroke="none" stroke-linecap="square" stroke-miterlimit="10" xmlns:xlink="http://www.w3.org/1999/xlink" xmlns="http://www.w3.org/2000/svg"><clipPath id="g90bafaa634_0_0.0"><path d="m0 0l960.0 0l0 540.0l-960.0 0l0 -540.0z" clip-rule="nonzero"/></clipPath><g clip-path="url(#g90bafaa634_0_0.0)"><path fill="#ffffff" d="m0 0l960.0 0l0 540.0l-960.0 0z" fill-rule="evenodd"/><path fill="#000000" fill-opacity="0.0" d="m69.18898 54.07874l0 446.96063" fill-rule="evenodd"/><path stroke="#595959" stroke-width="8.0" stroke-linejoin="round" stroke-linecap="butt" d="m69.18898 54.07874l0 446.96063" fill-rule="evenodd"/><path fill="#000000" fill-opacity="0.0" d="m852.5486 472.50394l-823.8425 0" fill-rule="evenodd"/><path stroke="#595959" stroke-width="8.0" stroke-linejoin="round" stroke-linecap="butt" d="m852.5486 472.50394l-823.8425 0" fill-rule="evenodd"/><path fill="#000000" fill-opacity="0.0" d="m73.16535 469.72964c9.854279 -66.53937 11.647354 -392.07828 59.12565 -399.2362c47.478302 -7.157917 152.58632 332.82764 225.74416 356.28873c73.15787 23.46106 130.78854 -159.45453 213.203 -215.52232c82.41443 -56.06781 234.40302 -100.73709 281.28363 -120.884514" fill-rule="evenodd"/><path stroke="#6aa84f" stroke-width="3.0" stroke-linejoin="round" stroke-linecap="butt" d="m73.16535 469.72964c9.854279 -66.53937 11.647354 -392.07828 59.12565 -399.2362c47.478302 -7.157917 152.58632 332.82764 225.74416 356.28873c73.15787 23.46106 130.78854 -159.45453 213.203 -215.52232c82.41443 -56.06781 234.40302 -100.73709 281.28363 -120.884514" fill-rule="evenodd"/><path fill="#000000" fill-opacity="0.0" d="m73.16535 481.9449l779.3701 0l0 53.44879l-779.3701 0z" fill-rule="evenodd"/><path fill="#434343" d="m406.3764 503.96802l-5.21875 0l0 -3.484375q0 -1.515625 -0.171875 -1.890625q-0.15625 -0.375 -0.71875 -0.375q-0.65625 0 -0.828125 0.453125q-0.171875 0.453125 -0.171875 1.96875l0 9.3125q0 1.453125 0.171875 1.90625q0.171875 0.4375 0.78125 0.4375q0.578125 0 0.75 -0.4375q0.1875 -0.453125 0.1875 -2.09375l0 -2.515625l5.21875 0l0 0.78125q0 3.109375 -0.453125 4.40625q-0.4375 1.296875 -1.9375 2.28125q-1.5 0.96875 -3.703125 0.96875q-2.28125 0 -3.765625 -0.828125q-1.484375 -0.828125 -1.96875 -2.296875q-0.484375 -1.46875 -0.484375 -4.40625l0 -5.84375q0 -2.171875 0.140625 -3.25q0.15625 -1.09375 0.890625 -2.09375q0.734375 -1.0 2.03125 -1.5625q1.3125 -0.578125 3.015625 -0.578125q2.296875 0 3.78125 0.890625q1.5 0.890625 1.96875 2.21875q0.484375 1.328125 0.484375 4.125l0 1.90625zm13.75885 3.0q0 3.015625 -0.140625 4.28125q-0.140625 1.25 -0.890625 2.296875q-0.75 1.03125 -2.03125 1.59375q-1.265625 0.546875 -2.96875 0.546875q-1.59375 0 -2.875 -0.515625q-1.28125 -0.53125 -2.0625 -1.578125q-0.78125 -1.0625 -0.9375 -2.296875q-0.140625 -1.234375 -0.140625 -4.328125l0 -3.421875q0 -3.015625 0.140625 -4.265625q0.140625 -1.265625 0.890625 -2.296875q0.75 -1.046875 2.015625 -1.59375q1.28125 -0.5625 2.96875 -0.5625q1.609375 0 2.890625 0.53125q1.28125 0.515625 2.0625 1.5625q0.78125 1.046875 0.921875 2.296875q0.15625 1.234375 0.15625 4.328125l0 3.421875zm-5.203125 -6.578125q0 -1.40625 -0.15625 -1.78125q-0.15625 -0.390625 -0.640625 -0.390625q-0.40625 0 -0.625 0.3125q-0.21875 0.3125 -0.21875 1.859375l0 9.34375q0 1.75 0.140625 2.15625q0.140625 0.40625 0.671875 0.40625q0.53125 0 0.671875 -0.46875q0.15625 -0.46875 0.15625 -2.234375l0 -9.203125zm23.213928 -5.140625l0 20.015625l-4.5625 0l0 -13.515625l-1.8125 13.515625l-3.234375 0l-1.90625 -13.203125l0 13.203125l-4.5625 0l0 -20.015625l6.75 0q0.296875 1.796875 0.625 4.25l0.71875 5.09375l1.1875 -9.34375l6.796875 0zm2.0770264 0l5.25 0q2.125 0 3.265625 0.328125q1.15625 0.328125 1.71875 0.96875q0.578125 0.625 0.78125 1.53125q0.203125 0.890625 0.203125 2.765625l0 1.75q0 1.90625 -0.390625 2.796875q-0.390625 0.875 -1.453125 1.34375q-1.0625 0.46875 -2.765625 0.46875l-1.390625 0l0 8.0625l-5.21875 0l0 -20.015625zm5.21875 3.421875l0 5.09375q0.21875 0.015625 0.375 0.015625q0.71875 0 1.0 -0.34375q0.28125 -0.359375 0.28125 -1.484375l0 -1.640625q0 -1.03125 -0.328125 -1.328125q-0.3125 -0.3125 -1.328125 -0.3125zm7.494751 -3.421875l8.6875 0l0 4.0l-3.46875 0l0 3.796875l3.25 0l0 3.8125l-3.25 0l0 4.40625l3.8125 0l0 4.0l-9.03125 0l0 -20.015625zm21.024536 0l0 4.0l-3.09375 0l0 16.015625l-5.203125 0l0 -16.015625l-3.09375 0l0 -4.0l11.390625 0zm1.1746826 0l8.6875 0l0 4.0l-3.46875 0l0 3.796875l3.25 0l0 3.8125l-3.25 0l0 4.40625l3.8125 0l0 4.0l-9.03125 0l0 -20.015625zm22.165161 0l0 20.015625l-4.578125 0l-2.703125 -9.109375l0 9.109375l-4.359375 0l0 -20.015625l4.359375 0l2.921875 9.015625l0 -9.015625l4.359375 0zm14.2465515 8.71875l-5.21875 0l0 -3.484375q0 -1.515625 -0.171875 -1.890625q-0.15625 -0.375 -0.71875 -0.375q-0.65625 0 -0.828125 0.453125q-0.171875 0.453125 -0.171875 1.96875l0 9.3125q0 1.453125 0.171875 1.90625q0.171875 0.4375 0.78125 0.4375q0.578125 0 0.75 -0.4375q0.1875 -0.453125 0.1875 -2.09375l0 -2.515625l5.21875 0l0 0.78125q0 3.109375 -0.453125 4.40625q-0.4375 1.296875 -1.9375 2.28125q-1.5 0.96875 -3.703125 0.96875q-2.28125 0 -3.765625 -0.828125q-1.484375 -0.828125 -1.96875 -2.296875q-0.484375 -1.46875 -0.484375 -4.40625l0 -5.84375q0 -2.171875 0.140625 -3.25q0.15625 -1.09375 0.890625 -2.09375q0.734375 -1.0 2.03125 -1.5625q1.3125 -0.578125 3.015625 -0.578125q2.296875 0 3.78125 0.890625q1.5 0.890625 1.96875 2.21875q0.484375 1.328125 0.484375 4.125l0 1.90625zm7.0713196 -8.71875l0 20.015625l-5.21875 0l0 -20.015625l5.21875 0zm11.077942 0l2.984375 20.015625l-5.328125 0l-0.265625 -3.59375l-1.875 0l-0.296875 3.59375l-5.390625 0l2.640625 -20.015625l7.53125 0zm-2.765625 12.875q-0.390625 -3.40625 -0.78125 -8.40625q-0.796875 5.734375 -1.0 8.40625l1.78125 0z" fill-rule="nonzero"/><path fill="#000000" fill-opacity="0.0" d="m11.76378 467.6299l0 -411.9685l53.448822 0l0 411.9685z" fill-rule="evenodd"/><path fill="#434343" d="m33.786903 318.11963l0 5.21875l-3.484375 0q-1.515625 0 -1.890625 0.171875q-0.375 0.15625 -0.375 0.71875q0 0.65625 0.453125 0.828125q0.453125 0.171875 1.96875 0.171875l9.3125 0q1.453125 0 1.90625 -0.171875q0.4375 -0.171875 0.4375 -0.78125q0 -0.578125 -0.4375 -0.75q-0.453125 -0.1875 -2.09375 -0.1875l-2.515625 0l0 -5.21875l0.78125 0q3.109375 0 4.40625 0.453125q1.296875 0.4375 2.28125 1.9375q0.96875 1.5 0.96875 3.703125q0 2.28125 -0.828125 3.765625q-0.828125 1.484375 -2.296875 1.96875q-1.46875 0.484375 -4.40625 0.484375l-5.84375 0q-2.171875 0 -3.25 -0.140625q-1.09375 -0.15625 -2.09375 -0.890625q-1.0 -0.734375 -1.5625 -2.03125q-0.578125 -1.3125 -0.578125 -3.015625q0 -2.296875 0.890625 -3.78125q0.890625 -1.5 2.21875 -1.96875q1.328125 -0.484375 4.125 -0.484375l1.90625 0zm3.0 -13.75882q3.015625 0 4.28125 0.140625q1.25 0.140625 2.296875 0.890625q1.03125 0.75 1.59375 2.03125q0.546875 1.265625 0.546875 2.96875q0 1.59375 -0.515625 2.875q-0.53125 1.28125 -1.578125 2.0625q-1.0625 0.78125 -2.296875 0.9375q-1.234375 0.140625 -4.328125 0.140625l-3.421875 0q-3.015625 0 -4.265625 -0.140625q-1.265625 -0.140625 -2.296875 -0.890625q-1.046875 -0.75 -1.59375 -2.015625q-0.5625 -1.28125 -0.5625 -2.96875q0 -1.609375 0.53125 -2.890625q0.515625 -1.28125 1.5625 -2.0625q1.046875 -0.78125 2.296875 -0.921875q1.234375 -0.15625 4.328125 -0.15625l3.421875 0zm-6.578125 5.203125q-1.40625 0 -1.78125 0.15625q-0.390625 0.15625 -0.390625 0.640625q0 0.40625 0.3125 0.625q0.3125 0.21875 1.859375 0.21875l9.34375 0q1.75 0 2.15625 -0.140625q0.40625 -0.140625 0.40625 -0.671875q0 -0.53125 -0.46875 -0.671875q-0.46875 -0.15625 -2.234375 -0.15625l-9.203125 0zm-5.140625 -23.213959l20.015625 0l0 4.5625l-13.515625 0l13.515625 1.8125l0 3.234375l-13.203125 1.90625l13.203125 0l0 4.5625l-20.015625 0l0 -6.75q1.796875 -0.296875 4.25 -0.625l5.09375 -0.71875l-9.34375 -1.1875l0 -6.796875zm0 -2.0769958l0 -5.25q0 -2.125 0.328125 -3.265625q0.328125 -1.15625 0.96875 -1.71875q0.625 -0.578125 1.53125 -0.78125q0.890625 -0.203125 2.765625 -0.203125l1.75 0q1.90625 0 2.796875 0.390625q0.875 0.390625 1.34375 1.453125q0.46875 1.0625 0.46875 2.765625l0 1.390625l8.0625 0l0 5.21875l-20.015625 0zm3.421875 -5.21875l5.09375 0q0.015625 -0.21875 0.015625 -0.375q0 -0.71875 -0.34375 -1.0q-0.359375 -0.28125 -1.484375 -0.28125l-1.640625 0q-1.03125 0 -1.328125 0.328125q-0.3125 0.3125 -0.3125 1.328125zm-3.421875 -7.4947815l0 -8.6875l4.0 0l0 3.46875l3.796875 0l0 -3.25l3.8125 0l0 3.25l4.40625 0l0 -3.8125l4.0 0l0 9.03125l-20.015625 0zm0 -21.024536l4.0 0l0 3.09375l16.015625 0l0 5.203125l-16.015625 0l0 3.09375l-4.0 0l0 -11.390625zm0 -1.1746826l0 -8.6875l4.0 0l0 3.46875l3.796875 0l0 -3.25l3.8125 0l0 3.25l4.40625 0l0 -3.8125l4.0 0l0 9.03125l-20.015625 0zm0 -22.165161l20.015625 0l0 4.578125l-9.109375 2.703125l9.109375 0l0 4.359375l-20.015625 0l0 -4.359375l9.015625 -2.921875l-9.015625 0l0 -4.359375zm8.71875 -14.246536l0 5.21875l-3.484375 0q-1.515625 0 -1.890625 0.171875q-0.375 0.15625 -0.375 0.71875q0 0.65625 0.453125 0.828125q0.453125 0.171875 1.96875 0.171875l9.3125 0q1.453125 0 1.90625 -0.171875q0.4375 -0.171875 0.4375 -0.78125q0 -0.578125 -0.4375 -0.75q-0.453125 -0.1875 -2.09375 -0.1875l-2.515625 0l0 -5.21875l0.78125 0q3.109375 0 4.40625 0.453125q1.296875 0.4375 2.28125 1.9375q0.96875 1.5 0.96875 3.703125q0 2.28125 -0.828125 3.765625q-0.828125 1.484375 -2.296875 1.96875q-1.46875 0.484375 -4.40625 0.484375l-5.84375 0q-2.171875 0 -3.25 -0.140625q-1.09375 -0.15625 -2.09375 -0.890625q-1.0 -0.734375 -1.5625 -2.03125q-0.578125 -1.3125 -0.578125 -3.015625q0 -2.296875 0.890625 -3.78125q0.890625 -1.5 2.21875 -1.96875q1.328125 -0.484375 4.125 -0.484375l1.90625 0zm-8.71875 -7.07135l20.015625 0l0 5.21875l-20.015625 0l0 -5.21875zm0 -11.077911l20.015625 -2.984375l0 5.328125l-3.59375 0.265625l0 1.875l3.59375 0.296875l0 5.390625l-20.015625 -2.640625l0 -7.53125zm12.875 2.765625q-3.40625 0.390625 -8.40625 0.78125q5.734375 0.796875 8.40625 1.0l0 -1.78125z" fill-rule="nonzero"/><path fill="#000000" fill-opacity="0.0" d="m699.24146 458.8386l161.29138 0l0 10.330688l-161.29138 0z" fill-rule="evenodd"/><path fill="#ffffff" d="m810.1531 464.9443q-0.046875 0.78125 -0.40625 1.234375q-0.34375 0.453125 -0.9375 0.453125q-0.59375 0 -0.765625 -0.546875q-0.1875 0.28125 -0.421875 0.421875q-0.21875 0.125 -0.453125 0.125q-0.46875 0 -0.703125 -0.375q-0.234375 -0.375 -0.171875 -1.046875q0.046875 -0.53125 0.234375 -0.953125q0.203125 -0.421875 0.515625 -0.65625q0.3125 -0.25 0.65625 -0.25q0.265625 0 0.46875 0.078125q0.203125 0.0625 0.46875 0.265625l-0.171875 1.8125q-0.0625 0.75 0.421875 0.75q0.359375 0 0.578125 -0.359375q0.234375 -0.375 0.265625 -0.953125q0.0625 -1.265625 -0.46875 -1.921875q-0.53125 -0.671875 -1.625 -0.671875q-0.65625 0 -1.171875 0.328125q-0.5 0.3125 -0.796875 0.921875q-0.28125 0.609375 -0.3125 1.421875q-0.046875 0.796875 0.1875 1.390625q0.234375 0.59375 0.71875 0.90625q0.484375 0.3125 1.15625 0.3125q0.296875 0 0.578125 -0.078125q0.296875 -0.0625 0.5 -0.171875l0.125 0.375q-0.203125 0.125 -0.546875 0.203125q-0.328125 0.078125 -0.671875 0.078125q-0.8125 0 -1.40625 -0.375q-0.578125 -0.359375 -0.875 -1.046875q-0.28125 -0.6875 -0.234375 -1.59375q0.03125 -0.90625 0.390625 -1.609375q0.359375 -0.71875 0.96875 -1.109375q0.625 -0.390625 1.40625 -0.390625q0.8125 0 1.390625 0.375q0.578125 0.359375 0.859375 1.046875q0.28125 0.6875 0.25 1.609375zm-3.34375 0.265625q-0.046875 0.46875 0.078125 0.71875q0.140625 0.234375 0.421875 0.234375q0.203125 0 0.375 -0.15625q0.1875 -0.171875 0.296875 -0.484375l0.015625 -0.015625l0.140625 -1.640625q-0.171875 -0.09375 -0.390625 -0.09375q-0.375 0 -0.625 0.390625q-0.25 0.375 -0.3125 1.046875zm6.2894897 1.359375q-0.046875 -0.109375 -0.078125 -0.375q-0.421875 0.4375 -1.0 0.4375q-0.53125 0 -0.859375 -0.28125q-0.328125 -0.296875 -0.328125 -0.75q0 -0.5625 0.40625 -0.859375q0.421875 -0.296875 1.1875 -0.296875l0.578125 0l0 -0.28125q0 -0.3125 -0.1875 -0.5q-0.1875 -0.1875 -0.5625 -0.1875q-0.3125 0 -0.53125 0.171875q-0.21875 0.15625 -0.21875 0.375l-0.609375 0q0 -0.265625 0.1875 -0.5q0.1875 -0.25 0.5 -0.390625q0.328125 -0.140625 0.71875 -0.140625q0.609375 0 0.953125 0.3125q0.34375 0.296875 0.359375 0.828125l0 1.609375q0 0.484375 0.109375 0.78125l0 0.046875l-0.625 0zm-1.0 -0.453125q0.28125 0 0.53125 -0.140625q0.265625 -0.15625 0.375 -0.390625l0 -0.71875l-0.46875 0q-1.109375 0 -1.109375 0.640625q0 0.28125 0.1875 0.453125q0.1875 0.15625 0.484375 0.15625zm3.1050415 0.453125l-0.609375 0l0 -5.0l0.609375 0l0 5.0zm2.1152954 -0.8125l0.875 -2.703125l0.609375 0l-1.25 3.515625l-0.46875 0l-1.265625 -3.515625l0.609375 0l0.890625 2.703125zm4.190918 0.8125q-0.046875 -0.109375 -0.078125 -0.375q-0.421875 0.4375 -1.0 0.4375q-0.53125 0 -0.859375 -0.28125q-0.328125 -0.296875 -0.328125 -0.75q0 -0.5625 0.40625 -0.859375q0.421875 -0.296875 1.1875 -0.296875l0.578125 0l0 -0.28125q0 -0.3125 -0.1875 -0.5q-0.1875 -0.1875 -0.5625 -0.1875q-0.3125 0 -0.53125 0.171875q-0.21875 0.15625 -0.21875 0.375l-0.609375 0q0 -0.265625 0.1875 -0.5q0.1875 -0.25 0.5 -0.390625q0.328125 -0.140625 0.71875 -0.140625q0.609375 0 0.953125 0.3125q0.34375 0.296875 0.359375 0.828125l0 1.609375q0 0.484375 0.109375 0.78125l0 0.046875l-0.625 0zm-1.0 -0.453125q0.28125 0 0.53125 -0.140625q0.265625 -0.15625 0.375 -0.390625l0 -0.71875l-0.46875 0q-1.109375 0 -1.109375 0.640625q0 0.28125 0.1875 0.453125q0.1875 0.15625 0.484375 0.15625zm4.1518555 -2.53125q-0.140625 -0.015625 -0.296875 -0.015625q-0.59375 0 -0.796875 0.5l0 2.5l-0.609375 0l0 -3.515625l0.59375 0l0 0.40625q0.296875 -0.46875 0.84375 -0.46875q0.171875 0 0.265625 0.046875l0 0.546875zm3.4555054 0.96875q0 1.046875 -0.359375 1.5625q-0.359375 0.515625 -1.125 0.515625q-0.765625 0 -1.125 -0.5q-0.359375 -0.5 -0.375 -1.5l0 -0.796875q0 -1.046875 0.359375 -1.546875q0.359375 -0.515625 1.125 -0.515625q0.765625 0 1.125 0.5q0.359375 0.484375 0.375 1.5l0 0.78125zm-0.59375 -0.828125q0 -0.765625 -0.21875 -1.109375q-0.21875 -0.34375 -0.6875 -0.34375q-0.453125 0 -0.671875 0.34375q-0.203125 0.34375 -0.21875 1.0625l0 0.96875q0 0.765625 0.21875 1.140625q0.234375 0.359375 0.6875 0.359375q0.4375 0 0.65625 -0.34375q0.21875 -0.34375 0.234375 -1.09375l0 -0.984375zm2.0344849 -0.25q0.390625 -0.484375 1.03125 -0.484375q1.125 0 1.125 1.25l0 2.328125l-0.59375 0l0 -2.328125q-0.015625 -0.375 -0.1875 -0.5625q-0.15625 -0.1875 -0.515625 -0.1875q-0.296875 0 -0.515625 0.15625q-0.21875 0.15625 -0.34375 0.421875l0 2.5l-0.609375 0l0 -5.0l0.609375 0l0 1.90625zm5.2286377 2.75q-0.34375 0.40625 -1.03125 0.40625q-0.5625 0 -0.859375 -0.328125q-0.296875 -0.328125 -0.296875 -0.96875l0 -2.28125l0.609375 0l0 2.265625q0 0.8125 0.640625 0.8125q0.6875 0 0.921875 -0.515625l0 -2.5625l0.609375 0l0 3.515625l-0.578125 0l-0.015625 -0.34375zm3.2006226 -2.640625q-0.140625 -0.015625 -0.296875 -0.015625q-0.59375 0 -0.796875 0.5l0 2.5l-0.609375 0l0 -3.515625l0.59375 0l0 0.40625q0.296875 -0.46875 0.84375 -0.46875q0.171875 0 0.265625 0.046875l0 0.546875zm1.5244751 -1.390625l0 0.859375l0.65625 0l0 0.46875l-0.65625 0l0 2.171875q0 0.21875 0.09375 0.328125q0.09375 0.09375 0.296875 0.09375q0.109375 0 0.28125 -0.03125l0 0.484375q-0.234375 0.0625 -0.453125 0.0625q-0.40625 0 -0.609375 -0.234375q-0.203125 -0.25 -0.203125 -0.703125l0 -2.171875l-0.640625 0l0 -0.46875l0.640625 0l0 -0.859375l0.59375 0zm3.5337524 4.375q-0.046875 -0.109375 -0.078125 -0.375q-0.421875 0.4375 -1.0 0.4375q-0.53125 0 -0.859375 -0.28125q-0.328125 -0.296875 -0.328125 -0.75q0 -0.5625 0.40625 -0.859375q0.421875 -0.296875 1.1875 -0.296875l0.578125 0l0 -0.28125q0 -0.3125 -0.1875 -0.5q-0.1875 -0.1875 -0.5625 -0.1875q-0.3125 0 -0.53125 0.171875q-0.21875 0.15625 -0.21875 0.375l-0.609375 0q0 -0.265625 0.1875 -0.5q0.1875 -0.25 0.5 -0.390625q0.328125 -0.140625 0.71875 -0.140625q0.609375 0 0.953125 0.3125q0.34375 0.296875 0.359375 0.828125l0 1.609375q0 0.484375 0.109375 0.78125l0 0.046875l-0.625 0zm-1.0 -0.453125q0.28125 0 0.53125 -0.140625q0.265625 -0.15625 0.375 -0.390625l0 -0.71875l-0.46875 0q-1.109375 0 -1.109375 0.640625q0 0.28125 0.1875 0.453125q0.1875 0.15625 0.484375 0.15625zm2.3081055 -1.328125q0 -0.8125 0.375 -1.296875q0.390625 -0.5 1.015625 -0.5q0.609375 0 0.96875 0.421875l0 -1.84375l0.609375 0l0 5.0l-0.5625 0l-0.03125 -0.375q-0.359375 0.4375 -1.0 0.4375q-0.609375 0 -1.0 -0.5q-0.375 -0.5 -0.375 -1.296875l0 -0.046875zm0.59375 0.0625q0 0.59375 0.25 0.9375q0.25 0.34375 0.6875 0.34375q0.5625 0 0.828125 -0.515625l0 -1.625q-0.265625 -0.5 -0.828125 -0.5q-0.4375 0 -0.6875 0.34375q-0.25 0.34375 -0.25 1.015625zm6.2070312 -0.296875q0 1.046875 -0.359375 1.5625q-0.359375 0.515625 -1.125 0.515625q-0.765625 0 -1.125 -0.5q-0.359375 -0.5 -0.375 -1.5l0 -0.796875q0 -1.046875 0.359375 -1.546875q0.359375 -0.515625 1.125 -0.515625q0.765625 0 1.125 0.5q0.359375 0.484375 0.375 1.5l0 0.78125zm-0.59375 -0.828125q0 -0.765625 -0.21875 -1.109375q-0.21875 -0.34375 -0.6875 -0.34375q-0.453125 0 -0.671875 0.34375q-0.203125 0.34375 -0.21875 1.0625l0 0.96875q0 0.765625 0.21875 1.140625q0.234375 0.359375 0.6875 0.359375q0.4375 0 0.65625 -0.34375q0.21875 -0.34375 0.234375 -1.09375l0 -0.984375z" fill-rule="nonzero"/></g></svg>